<svg xmlns="http://www.w3.org/2000/svg" width="487" height="64" viewBox="0 0 487 64" fill="none"><path d="M286.016 27.8C286.144 27.8 286.256 27.848 286.352 27.944C286.459 28.04 286.512 28.1573 286.512 28.296V38.504C286.501 38.6427 286.443 38.76 286.336 38.856C286.24 38.952 286.128 39 286 39C285.851 39 285.728 38.952 285.632 38.856C285.547 38.76 285.504 38.6427 285.504 38.504V28.296C285.504 28.1573 285.552 28.04 285.648 27.944C285.744 27.848 285.867 27.8 286.016 27.8ZM293.52 27.8C293.669 27.8 293.787 27.848 293.872 27.944C293.968 28.04 294.016 28.1573 294.016 28.296V38.504C294.005 38.6427 293.952 38.76 293.856 38.856C293.771 38.952 293.653 39 293.504 39C293.365 39 293.248 38.952 293.152 38.856C293.056 38.76 293.008 38.6427 293.008 38.504V28.296C293.008 28.1573 293.056 28.04 293.152 27.944C293.259 27.848 293.381 27.8 293.52 27.8ZM285.936 32.808H293.536L293.52 33.736H285.872L285.936 32.808ZM306.684 30.824C306.822 30.824 306.934 30.872 307.02 30.968C307.116 31.064 307.164 31.1813 307.164 31.32V38.52C307.164 38.648 307.116 38.76 307.02 38.856C306.924 38.952 306.812 39 306.684 39C306.545 39 306.428 38.952 306.332 38.856C306.246 38.76 306.204 38.648 306.204 38.52V36.616L306.476 36.488C306.476 36.7867 306.39 37.0907 306.22 37.4C306.06 37.7093 305.836 37.9973 305.548 38.264C305.26 38.5307 304.918 38.7493 304.524 38.92C304.14 39.08 303.724 39.16 303.276 39.16C302.55 39.16 301.9 38.9733 301.324 38.6C300.758 38.2267 300.31 37.7147 299.98 37.064C299.66 36.4133 299.5 35.6827 299.5 34.872C299.5 34.04 299.665 33.3093 299.996 32.68C300.326 32.04 300.774 31.5387 301.34 31.176C301.905 30.8133 302.545 30.632 303.26 30.632C303.718 30.632 304.145 30.712 304.54 30.872C304.945 31.032 305.297 31.2507 305.596 31.528C305.894 31.8053 306.124 32.1253 306.284 32.488C306.454 32.84 306.54 33.208 306.54 33.592L306.204 33.352V31.32C306.204 31.1813 306.246 31.064 306.332 30.968C306.428 30.872 306.545 30.824 306.684 30.824ZM303.356 38.264C303.921 38.264 304.422 38.12 304.86 37.832C305.297 37.5333 305.638 37.128 305.884 36.616C306.14 36.0933 306.268 35.512 306.268 34.872C306.268 34.2427 306.14 33.6773 305.884 33.176C305.638 32.6747 305.297 32.2747 304.86 31.976C304.422 31.6773 303.921 31.528 303.356 31.528C302.801 31.528 302.3 31.672 301.852 31.96C301.414 32.248 301.068 32.6427 300.812 33.144C300.566 33.6453 300.444 34.2213 300.444 34.872C300.444 35.512 300.566 36.0933 300.812 36.616C301.068 37.128 301.414 37.5333 301.852 37.832C302.289 38.12 302.79 38.264 303.356 38.264ZM316.739 30.632C317.443 30.632 318.003 30.776 318.419 31.064C318.845 31.3413 319.149 31.7253 319.331 32.216C319.523 32.696 319.619 33.2293 319.619 33.816V38.52C319.619 38.648 319.571 38.76 319.475 38.856C319.379 38.952 319.267 39 319.139 39C318.989 39 318.872 38.952 318.787 38.856C318.701 38.76 318.659 38.648 318.659 38.52V33.864C318.659 33.4373 318.589 33.048 318.451 32.696C318.312 32.344 318.083 32.0613 317.763 31.848C317.453 31.6347 317.043 31.528 316.531 31.528C316.072 31.528 315.635 31.6347 315.219 31.848C314.813 32.0613 314.483 32.344 314.227 32.696C313.971 33.048 313.843 33.4373 313.843 33.864V38.52C313.843 38.648 313.795 38.76 313.699 38.856C313.603 38.952 313.491 39 313.363 39C313.213 39 313.096 38.952 313.011 38.856C312.925 38.76 312.883 38.648 312.883 38.52V31.352C312.883 31.224 312.925 31.112 313.011 31.016C313.107 30.92 313.224 30.872 313.363 30.872C313.501 30.872 313.613 30.92 313.699 31.016C313.795 31.112 313.843 31.224 313.843 31.352V32.696L313.475 33.272C313.496 32.9307 313.603 32.6053 313.795 32.296C313.997 31.976 314.253 31.6933 314.563 31.448C314.872 31.192 315.213 30.9947 315.587 30.856C315.971 30.7067 316.355 30.632 316.739 30.632ZM332.037 27.16C332.175 27.16 332.287 27.208 332.373 27.304C332.469 27.3893 332.517 27.5013 332.517 27.64V38.52C332.517 38.648 332.469 38.76 332.373 38.856C332.277 38.952 332.165 39 332.037 39C331.898 39 331.781 38.952 331.685 38.856C331.599 38.76 331.557 38.648 331.557 38.52V36.616L331.829 36.392C331.829 36.6907 331.749 37.0053 331.589 37.336C331.429 37.656 331.199 37.9547 330.901 38.232C330.613 38.5093 330.271 38.7333 329.877 38.904C329.493 39.0747 329.077 39.16 328.629 39.16C327.914 39.16 327.269 38.9733 326.693 38.6C326.127 38.2267 325.679 37.72 325.349 37.08C325.018 36.44 324.853 35.7093 324.853 34.888C324.853 34.0773 325.018 33.352 325.349 32.712C325.679 32.0613 326.127 31.5547 326.693 31.192C327.258 30.8187 327.898 30.632 328.613 30.632C329.05 30.632 329.466 30.712 329.861 30.872C330.255 31.032 330.602 31.2507 330.901 31.528C331.21 31.8053 331.45 32.1253 331.621 32.488C331.802 32.84 331.893 33.208 331.893 33.592L331.557 33.352V27.64C331.557 27.512 331.599 27.4 331.685 27.304C331.781 27.208 331.898 27.16 332.037 27.16ZM328.709 38.264C329.285 38.264 329.786 38.12 330.213 37.832C330.65 37.5333 330.991 37.1333 331.237 36.632C331.493 36.12 331.621 35.5387 331.621 34.888C331.621 34.248 331.493 33.6773 331.237 33.176C330.991 32.664 330.65 32.264 330.213 31.976C329.775 31.6773 329.274 31.528 328.709 31.528C328.154 31.528 327.653 31.6773 327.205 31.976C326.767 32.264 326.421 32.664 326.165 33.176C325.919 33.6773 325.797 34.248 325.797 34.888C325.797 35.528 325.919 36.104 326.165 36.616C326.421 37.128 326.767 37.5333 327.205 37.832C327.653 38.12 328.154 38.264 328.709 38.264ZM341.836 30.632C342.348 30.632 342.817 30.6907 343.244 30.808C343.671 30.9147 344.012 31.064 344.268 31.256C344.535 31.448 344.668 31.656 344.668 31.88C344.668 31.9867 344.631 32.0933 344.556 32.2C344.481 32.296 344.38 32.344 344.252 32.344C344.124 32.344 344.017 32.312 343.932 32.248C343.857 32.184 343.777 32.1093 343.692 32.024C343.617 31.9387 343.505 31.8587 343.356 31.784C343.217 31.72 343.02 31.6613 342.764 31.608C342.508 31.5547 342.215 31.528 341.884 31.528C341.287 31.528 340.748 31.6773 340.268 31.976C339.788 32.2747 339.409 32.68 339.132 33.192C338.855 33.6933 338.716 34.2587 338.716 34.888C338.716 35.528 338.849 36.104 339.116 36.616C339.383 37.128 339.751 37.5333 340.22 37.832C340.689 38.12 341.239 38.264 341.868 38.264C342.295 38.264 342.625 38.2267 342.86 38.152C343.095 38.0773 343.297 37.992 343.468 37.896C343.671 37.7787 343.815 37.6667 343.9 37.56C343.996 37.4427 344.119 37.384 344.268 37.384C344.407 37.384 344.508 37.4267 344.572 37.512C344.647 37.5867 344.684 37.688 344.684 37.816C344.684 37.9867 344.556 38.1787 344.3 38.392C344.055 38.5947 343.713 38.776 343.276 38.936C342.839 39.0853 342.337 39.16 341.772 39.16C340.972 39.16 340.268 38.9733 339.66 38.6C339.063 38.2267 338.593 37.72 338.252 37.08C337.921 36.4293 337.756 35.6987 337.756 34.888C337.756 34.1093 337.927 33.4 338.268 32.76C338.609 32.12 339.084 31.608 339.692 31.224C340.311 30.8293 341.025 30.632 341.836 30.632ZM350.197 39C350.048 39 349.93 38.952 349.845 38.856C349.76 38.76 349.717 38.648 349.717 38.52V31.352C349.717 31.224 349.76 31.112 349.845 31.016C349.941 30.92 350.058 30.872 350.197 30.872C350.336 30.872 350.448 30.92 350.533 31.016C350.629 31.112 350.677 31.224 350.677 31.352V33.752L350.437 33.8C350.469 33.4267 350.56 33.0587 350.709 32.696C350.869 32.3227 351.082 31.9813 351.349 31.672C351.616 31.3627 351.93 31.112 352.293 30.92C352.666 30.728 353.082 30.632 353.541 30.632C353.733 30.632 353.92 30.6747 354.101 30.76C354.282 30.8347 354.373 30.9627 354.373 31.144C354.373 31.304 354.33 31.4267 354.245 31.512C354.16 31.5973 354.058 31.64 353.941 31.64C353.845 31.64 353.738 31.6133 353.621 31.56C353.514 31.5067 353.37 31.48 353.189 31.48C352.89 31.48 352.592 31.5707 352.293 31.752C351.994 31.9227 351.722 32.1573 351.477 32.456C351.232 32.7547 351.034 33.0907 350.885 33.464C350.746 33.8267 350.677 34.1947 350.677 34.568V38.52C350.677 38.648 350.629 38.76 350.533 38.856C350.437 38.952 350.325 39 350.197 39ZM365.59 30.824C365.729 30.824 365.841 30.872 365.926 30.968C366.022 31.064 366.07 31.1813 366.07 31.32V38.52C366.07 38.648 366.022 38.76 365.926 38.856C365.83 38.952 365.718 39 365.59 39C365.451 39 365.334 38.952 365.238 38.856C365.153 38.76 365.11 38.648 365.11 38.52V36.616L365.382 36.488C365.382 36.7867 365.297 37.0907 365.126 37.4C364.966 37.7093 364.742 37.9973 364.454 38.264C364.166 38.5307 363.825 38.7493 363.43 38.92C363.046 39.08 362.63 39.16 362.182 39.16C361.457 39.16 360.806 38.9733 360.23 38.6C359.665 38.2267 359.217 37.7147 358.886 37.064C358.566 36.4133 358.406 35.6827 358.406 34.872C358.406 34.04 358.571 33.3093 358.902 32.68C359.233 32.04 359.681 31.5387 360.246 31.176C360.811 30.8133 361.451 30.632 362.166 30.632C362.625 30.632 363.051 30.712 363.446 30.872C363.851 31.032 364.203 31.2507 364.502 31.528C364.801 31.8053 365.03 32.1253 365.19 32.488C365.361 32.84 365.446 33.208 365.446 33.592L365.11 33.352V31.32C365.11 31.1813 365.153 31.064 365.238 30.968C365.334 30.872 365.451 30.824 365.59 30.824ZM362.262 38.264C362.827 38.264 363.329 38.12 363.766 37.832C364.203 37.5333 364.545 37.128 364.79 36.616C365.046 36.0933 365.174 35.512 365.174 34.872C365.174 34.2427 365.046 33.6773 364.79 33.176C364.545 32.6747 364.203 32.2747 363.766 31.976C363.329 31.6773 362.827 31.528 362.262 31.528C361.707 31.528 361.206 31.672 360.758 31.96C360.321 32.248 359.974 32.6427 359.718 33.144C359.473 33.6453 359.35 34.2213 359.35 34.872C359.35 35.512 359.473 36.0933 359.718 36.616C359.974 37.128 360.321 37.5333 360.758 37.832C361.195 38.12 361.697 38.264 362.262 38.264ZM374.749 27.224C374.909 27.224 375.08 27.24 375.261 27.272C375.453 27.304 375.618 27.3627 375.757 27.448C375.896 27.5227 375.965 27.64 375.965 27.8C375.965 27.9173 375.922 28.024 375.837 28.12C375.752 28.2053 375.656 28.248 375.549 28.248C375.442 28.248 375.309 28.2213 375.149 28.168C374.989 28.104 374.818 28.072 374.637 28.072C374.413 28.072 374.221 28.1253 374.061 28.232C373.901 28.328 373.778 28.472 373.693 28.664C373.608 28.8453 373.565 29.0693 373.565 29.336V38.52C373.565 38.648 373.517 38.76 373.421 38.856C373.336 38.952 373.224 39 373.085 39C372.946 39 372.829 38.952 372.733 38.856C372.648 38.76 372.605 38.648 372.605 38.52V29.336C372.605 28.6533 372.802 28.1307 373.197 27.768C373.602 27.4053 374.12 27.224 374.749 27.224ZM375.357 30.984C375.485 30.984 375.592 31.0267 375.677 31.112C375.762 31.1973 375.805 31.304 375.805 31.432C375.805 31.56 375.762 31.6667 375.677 31.752C375.592 31.8373 375.485 31.88 375.357 31.88H371.437C371.32 31.88 371.213 31.8373 371.117 31.752C371.032 31.656 370.989 31.5493 370.989 31.432C370.989 31.2933 371.032 31.1867 371.117 31.112C371.213 31.0267 371.32 30.984 371.437 30.984H375.357ZM380.273 30.856H384.001C384.129 30.856 384.236 30.904 384.321 31C384.407 31.0853 384.449 31.192 384.449 31.32C384.449 31.4373 384.407 31.5387 384.321 31.624C384.236 31.7093 384.129 31.752 384.001 31.752H380.273C380.145 31.752 380.033 31.7093 379.937 31.624C379.852 31.528 379.809 31.4213 379.809 31.304C379.809 31.176 379.852 31.0693 379.937 30.984C380.033 30.8987 380.145 30.856 380.273 30.856ZM381.921 28.6C382.06 28.6 382.172 28.648 382.257 28.744C382.353 28.84 382.401 28.952 382.401 29.08V37.112C382.401 37.4107 382.439 37.6347 382.513 37.784C382.599 37.9333 382.705 38.0347 382.833 38.088C382.961 38.1307 383.089 38.152 383.217 38.152C383.303 38.152 383.377 38.1413 383.441 38.12C383.516 38.088 383.596 38.072 383.681 38.072C383.777 38.072 383.857 38.1093 383.921 38.184C383.996 38.2587 384.033 38.3547 384.033 38.472C384.033 38.6213 383.948 38.7493 383.777 38.856C383.607 38.952 383.404 39 383.169 39C383.073 39 382.929 38.9947 382.737 38.984C382.545 38.9627 382.348 38.904 382.145 38.808C381.943 38.7013 381.772 38.52 381.633 38.264C381.505 38.008 381.441 37.64 381.441 37.16V29.08C381.441 28.952 381.484 28.84 381.569 28.744C381.665 28.648 381.783 28.6 381.921 28.6ZM393.041 39.16C392.22 39.16 391.495 38.984 390.865 38.632C390.236 38.28 389.745 37.7893 389.393 37.16C389.041 36.5307 388.865 35.7947 388.865 34.952C388.865 34.0453 389.041 33.272 389.393 32.632C389.756 31.992 390.22 31.5013 390.785 31.16C391.361 30.808 391.969 30.632 392.609 30.632C393.079 30.632 393.532 30.7173 393.969 30.888C394.417 31.048 394.812 31.2933 395.153 31.624C395.505 31.944 395.783 32.3387 395.985 32.808C396.199 33.2773 396.316 33.8213 396.337 34.44C396.327 34.568 396.273 34.68 396.177 34.776C396.081 34.8613 395.969 34.904 395.841 34.904H389.425L389.233 34.04H395.537L395.329 34.232V33.912C395.287 33.4107 395.127 32.984 394.849 32.632C394.572 32.28 394.236 32.0133 393.841 31.832C393.447 31.6507 393.036 31.56 392.609 31.56C392.289 31.56 391.959 31.624 391.617 31.752C391.287 31.88 390.983 32.0827 390.705 32.36C390.439 32.6267 390.22 32.9733 390.049 33.4C389.879 33.816 389.793 34.312 389.793 34.888C389.793 35.5173 389.921 36.088 390.177 36.6C390.433 37.112 390.801 37.5173 391.281 37.816C391.772 38.1147 392.353 38.264 393.025 38.264C393.399 38.264 393.735 38.2107 394.033 38.104C394.332 37.9973 394.593 37.8587 394.817 37.688C395.041 37.5067 395.228 37.32 395.377 37.128C395.495 37.032 395.612 36.984 395.729 36.984C395.836 36.984 395.927 37.0267 396.001 37.112C396.087 37.1973 396.129 37.2933 396.129 37.4C396.129 37.528 396.076 37.64 395.969 37.736C395.649 38.12 395.233 38.456 394.721 38.744C394.209 39.0213 393.649 39.16 393.041 39.16ZM408.296 27.16C408.435 27.16 408.547 27.208 408.632 27.304C408.728 27.3893 408.776 27.5013 408.776 27.64V38.52C408.776 38.648 408.728 38.76 408.632 38.856C408.536 38.952 408.424 39 408.296 39C408.157 39 408.04 38.952 407.944 38.856C407.859 38.76 407.816 38.648 407.816 38.52V36.616L408.088 36.392C408.088 36.6907 408.008 37.0053 407.848 37.336C407.688 37.656 407.459 37.9547 407.16 38.232C406.872 38.5093 406.531 38.7333 406.136 38.904C405.752 39.0747 405.336 39.16 404.888 39.16C404.173 39.16 403.528 38.9733 402.952 38.6C402.387 38.2267 401.939 37.72 401.608 37.08C401.277 36.44 401.112 35.7093 401.112 34.888C401.112 34.0773 401.277 33.352 401.608 32.712C401.939 32.0613 402.387 31.5547 402.952 31.192C403.517 30.8187 404.157 30.632 404.872 30.632C405.309 30.632 405.725 30.712 406.12 30.872C406.515 31.032 406.861 31.2507 407.16 31.528C407.469 31.8053 407.709 32.1253 407.88 32.488C408.061 32.84 408.152 33.208 408.152 33.592L407.816 33.352V27.64C407.816 27.512 407.859 27.4 407.944 27.304C408.04 27.208 408.157 27.16 408.296 27.16ZM404.968 38.264C405.544 38.264 406.045 38.12 406.472 37.832C406.909 37.5333 407.251 37.1333 407.496 36.632C407.752 36.12 407.88 35.5387 407.88 34.888C407.88 34.248 407.752 33.6773 407.496 33.176C407.251 32.664 406.909 32.264 406.472 31.976C406.035 31.6773 405.533 31.528 404.968 31.528C404.413 31.528 403.912 31.6773 403.464 31.976C403.027 32.264 402.68 32.664 402.424 33.176C402.179 33.6773 402.056 34.248 402.056 34.888C402.056 35.528 402.179 36.104 402.424 36.616C402.68 37.128 403.027 37.5333 403.464 37.832C403.912 38.12 404.413 38.264 404.968 38.264ZM425.398 39.16C424.588 39.1707 423.884 39.0427 423.286 38.776C422.689 38.5093 422.118 38.1093 421.574 37.576C421.521 37.5333 421.473 37.48 421.43 37.416C421.398 37.352 421.382 37.2773 421.382 37.192C421.382 37.064 421.43 36.9467 421.526 36.84C421.633 36.7333 421.75 36.68 421.878 36.68C422.006 36.68 422.124 36.7333 422.23 36.84C422.646 37.288 423.116 37.6293 423.638 37.864C424.172 38.0987 424.742 38.216 425.35 38.216C425.862 38.216 426.316 38.136 426.71 37.976C427.116 37.816 427.436 37.5867 427.67 37.288C427.905 36.9893 428.022 36.6427 428.022 36.248C428.022 35.7573 427.889 35.3627 427.622 35.064C427.356 34.7547 427.004 34.504 426.566 34.312C426.129 34.1093 425.644 33.928 425.11 33.768C424.673 33.64 424.257 33.496 423.862 33.336C423.468 33.1653 423.116 32.9627 422.806 32.728C422.497 32.4827 422.257 32.184 422.086 31.832C421.916 31.48 421.83 31.0533 421.83 30.552C421.83 29.9867 421.98 29.4853 422.278 29.048C422.577 28.6107 422.998 28.2693 423.542 28.024C424.097 27.768 424.737 27.64 425.462 27.64C426.092 27.64 426.694 27.7467 427.27 27.96C427.857 28.1733 428.321 28.488 428.662 28.904C428.822 29.0747 428.902 29.2293 428.902 29.368C428.902 29.4747 428.849 29.5813 428.742 29.688C428.636 29.7947 428.518 29.848 428.39 29.848C428.284 29.848 428.193 29.8107 428.118 29.736C427.937 29.512 427.708 29.3147 427.43 29.144C427.153 28.9627 426.844 28.824 426.502 28.728C426.172 28.632 425.825 28.584 425.462 28.584C424.961 28.584 424.508 28.664 424.102 28.824C423.708 28.9733 423.393 29.192 423.158 29.48C422.934 29.768 422.822 30.1147 422.822 30.52C422.822 30.968 422.95 31.336 423.206 31.624C423.462 31.912 423.798 32.152 424.214 32.344C424.63 32.5253 425.073 32.696 425.542 32.856C426.001 32.984 426.438 33.1333 426.854 33.304C427.281 33.464 427.654 33.6667 427.974 33.912C428.305 34.1573 428.561 34.4667 428.742 34.84C428.934 35.2133 429.03 35.6827 429.03 36.248C429.03 36.792 428.876 37.2827 428.566 37.72C428.257 38.1573 427.83 38.504 427.286 38.76C426.753 39.016 426.124 39.1493 425.398 39.16ZM433.727 30.856H437.455C437.583 30.856 437.689 30.904 437.775 31C437.86 31.0853 437.903 31.192 437.903 31.32C437.903 31.4373 437.86 31.5387 437.775 31.624C437.689 31.7093 437.583 31.752 437.455 31.752H433.727C433.599 31.752 433.487 31.7093 433.391 31.624C433.305 31.528 433.263 31.4213 433.263 31.304C433.263 31.176 433.305 31.0693 433.391 30.984C433.487 30.8987 433.599 30.856 433.727 30.856ZM435.375 28.6C435.513 28.6 435.625 28.648 435.711 28.744C435.807 28.84 435.855 28.952 435.855 29.08V37.112C435.855 37.4107 435.892 37.6347 435.967 37.784C436.052 37.9333 436.159 38.0347 436.287 38.088C436.415 38.1307 436.543 38.152 436.671 38.152C436.756 38.152 436.831 38.1413 436.895 38.12C436.969 38.088 437.049 38.072 437.135 38.072C437.231 38.072 437.311 38.1093 437.375 38.184C437.449 38.2587 437.487 38.3547 437.487 38.472C437.487 38.6213 437.401 38.7493 437.231 38.856C437.06 38.952 436.857 39 436.623 39C436.527 39 436.383 38.9947 436.191 38.984C435.999 38.9627 435.801 38.904 435.599 38.808C435.396 38.7013 435.225 38.52 435.087 38.264C434.959 38.008 434.895 37.64 434.895 37.16V29.08C434.895 28.952 434.937 28.84 435.023 28.744C435.119 28.648 435.236 28.6 435.375 28.6ZM450.414 34.904C450.414 35.7147 450.238 36.4453 449.886 37.096C449.534 37.736 449.054 38.2427 448.446 38.616C447.838 38.9787 447.145 39.16 446.366 39.16C445.609 39.16 444.921 38.9787 444.302 38.616C443.694 38.2427 443.209 37.736 442.846 37.096C442.494 36.4453 442.318 35.7147 442.318 34.904C442.318 34.0827 442.494 33.352 442.846 32.712C443.209 32.072 443.694 31.5653 444.302 31.192C444.921 30.8187 445.609 30.632 446.366 30.632C447.145 30.632 447.838 30.8187 448.446 31.192C449.054 31.5653 449.534 32.072 449.886 32.712C450.238 33.352 450.414 34.0827 450.414 34.904ZM449.454 34.904C449.454 34.2533 449.321 33.6773 449.054 33.176C448.788 32.664 448.42 32.264 447.95 31.976C447.492 31.6773 446.964 31.528 446.366 31.528C445.79 31.528 445.268 31.6773 444.798 31.976C444.329 32.264 443.956 32.664 443.678 33.176C443.412 33.6773 443.278 34.2533 443.278 34.904C443.278 35.5547 443.412 36.1307 443.678 36.632C443.956 37.1333 444.329 37.5333 444.798 37.832C445.268 38.12 445.79 38.264 446.366 38.264C446.964 38.264 447.492 38.12 447.95 37.832C448.42 37.5333 448.788 37.1333 449.054 36.632C449.321 36.1307 449.454 35.5547 449.454 34.904ZM459.511 30.632C460.215 30.632 460.775 30.776 461.191 31.064C461.617 31.3413 461.921 31.7253 462.103 32.216C462.295 32.696 462.391 33.2293 462.391 33.816V38.52C462.391 38.648 462.343 38.76 462.247 38.856C462.151 38.952 462.039 39 461.911 39C461.761 39 461.644 38.952 461.559 38.856C461.473 38.76 461.431 38.648 461.431 38.52V33.864C461.431 33.4373 461.361 33.048 461.223 32.696C461.084 32.344 460.855 32.0613 460.535 31.848C460.225 31.6347 459.815 31.528 459.303 31.528C458.844 31.528 458.407 31.6347 457.991 31.848C457.585 32.0613 457.255 32.344 456.999 32.696C456.743 33.048 456.615 33.4373 456.615 33.864V38.52C456.615 38.648 456.567 38.76 456.471 38.856C456.375 38.952 456.263 39 456.135 39C455.985 39 455.868 38.952 455.783 38.856C455.697 38.76 455.655 38.648 455.655 38.52V31.352C455.655 31.224 455.697 31.112 455.783 31.016C455.879 30.92 455.996 30.872 456.135 30.872C456.273 30.872 456.385 30.92 456.471 31.016C456.567 31.112 456.615 31.224 456.615 31.352V32.696L456.247 33.272C456.268 32.9307 456.375 32.6053 456.567 32.296C456.769 31.976 457.025 31.6933 457.335 31.448C457.644 31.192 457.985 30.9947 458.359 30.856C458.743 30.7067 459.127 30.632 459.511 30.632ZM471.801 39.16C470.979 39.16 470.254 38.984 469.625 38.632C468.995 38.28 468.505 37.7893 468.153 37.16C467.801 36.5307 467.625 35.7947 467.625 34.952C467.625 34.0453 467.801 33.272 468.153 32.632C468.515 31.992 468.979 31.5013 469.545 31.16C470.121 30.808 470.729 30.632 471.369 30.632C471.838 30.632 472.291 30.7173 472.729 30.888C473.177 31.048 473.571 31.2933 473.913 31.624C474.265 31.944 474.542 32.3387 474.745 32.808C474.958 33.2773 475.075 33.8213 475.097 34.44C475.086 34.568 475.033 34.68 474.937 34.776C474.841 34.8613 474.729 34.904 474.601 34.904H468.185L467.993 34.04H474.297L474.089 34.232V33.912C474.046 33.4107 473.886 32.984 473.609 32.632C473.331 32.28 472.995 32.0133 472.601 31.832C472.206 31.6507 471.795 31.56 471.369 31.56C471.049 31.56 470.718 31.624 470.377 31.752C470.046 31.88 469.742 32.0827 469.465 32.36C469.198 32.6267 468.979 32.9733 468.809 33.4C468.638 33.816 468.553 34.312 468.553 34.888C468.553 35.5173 468.681 36.088 468.937 36.6C469.193 37.112 469.561 37.5173 470.041 37.816C470.531 38.1147 471.113 38.264 471.785 38.264C472.158 38.264 472.494 38.2107 472.793 38.104C473.091 37.9973 473.353 37.8587 473.577 37.688C473.801 37.5067 473.987 37.32 474.137 37.128C474.254 37.032 474.371 36.984 474.489 36.984C474.595 36.984 474.686 37.0267 474.761 37.112C474.846 37.1973 474.889 37.2933 474.889 37.4C474.889 37.528 474.835 37.64 474.729 37.736C474.409 38.12 473.993 38.456 473.481 38.744C472.969 39.0213 472.409 39.16 471.801 39.16ZM479.887 37.704C479.802 37.576 479.759 37.4533 479.759 37.336C479.77 37.208 479.839 37.1067 479.967 37.032C480.053 36.9573 480.149 36.9253 480.255 36.936C480.373 36.9467 480.479 37 480.575 37.096C480.863 37.4693 481.21 37.7733 481.615 38.008C482.031 38.232 482.522 38.344 483.087 38.344C483.386 38.344 483.679 38.296 483.967 38.2C484.266 38.0933 484.511 37.9387 484.703 37.736C484.895 37.5227 484.991 37.256 484.991 36.936C484.991 36.6053 484.895 36.3387 484.703 36.136C484.511 35.9333 484.261 35.7733 483.951 35.656C483.653 35.5387 483.333 35.4373 482.991 35.352C482.629 35.256 482.277 35.1493 481.935 35.032C481.594 34.904 481.29 34.7493 481.023 34.568C480.767 34.376 480.559 34.1467 480.399 33.88C480.239 33.6133 480.159 33.288 480.159 32.904C480.159 32.456 480.282 32.0613 480.527 31.72C480.773 31.3787 481.103 31.112 481.519 30.92C481.946 30.728 482.426 30.632 482.959 30.632C483.226 30.632 483.514 30.6693 483.823 30.744C484.133 30.808 484.437 30.92 484.735 31.08C485.034 31.24 485.301 31.4587 485.535 31.736C485.631 31.832 485.679 31.944 485.679 32.072C485.679 32.1893 485.626 32.296 485.519 32.392C485.434 32.456 485.333 32.488 485.215 32.488C485.109 32.488 485.018 32.4453 484.943 32.36C484.687 32.072 484.383 31.8533 484.031 31.704C483.679 31.5547 483.301 31.48 482.895 31.48C482.586 31.48 482.293 31.5333 482.015 31.64C481.749 31.736 481.525 31.8853 481.343 32.088C481.162 32.2907 481.071 32.5573 481.071 32.888C481.093 33.1973 481.199 33.448 481.391 33.64C481.594 33.832 481.855 33.992 482.175 34.12C482.506 34.248 482.874 34.3653 483.279 34.472C483.621 34.5573 483.946 34.6587 484.255 34.776C484.575 34.8933 484.853 35.0427 485.087 35.224C485.333 35.3947 485.525 35.6133 485.663 35.88C485.813 36.1467 485.887 36.4827 485.887 36.888C485.887 37.3573 485.754 37.7627 485.487 38.104C485.231 38.4453 484.885 38.7067 484.447 38.888C484.01 39.0693 483.525 39.16 482.991 39.16C482.415 39.16 481.855 39.048 481.311 38.824C480.778 38.6 480.303 38.2267 479.887 37.704Z" fill="#555555"></path><path d="M266 16L266 49" stroke="#999999"></path><g clip-path="url(#clip0_952_4238)"><path opacity="0.3" d="M0.102521 46.5773L0 0L15.1881 26.9184L15.2406 63.7028" fill="#333333"></path><path opacity="0.55" d="M0.0976562 46.5774H0.760289L21.8495 46.5189L21.8695 46.5408L37.0076 63.6639L34.7421 63.6225L21.6045 63.6736L15.2382 63.7004L0.0976562 46.5774Z" fill="#333333"></path><path d="M49.0377 25.7637H50.893V40.2777H57.7219V41.9951H49.0352V25.7637H49.0377Z" fill="#333333"></path><path d="M75.4509 39.0938C76.2885 39.9805 77.4388 40.4239 78.894 40.4239C80.3493 40.4239 81.4896 39.9805 82.3097 39.0938C83.1274 38.207 83.5375 36.9695 83.5375 35.3861V25.7686H85.3929V35.3861C85.3929 37.5055 84.8177 39.1669 83.6725 40.3678C82.5273 41.5688 80.9295 42.1729 78.894 42.1729C76.8586 42.1729 75.2558 41.5688 74.1006 40.3678C72.9454 39.1669 72.3652 37.5055 72.3652 35.3861V25.7686H74.1956V35.3861C74.1906 36.9695 74.6107 38.207 75.4484 39.0938H75.4509Z" fill="#333333"></path><path d="M109.267 27.8417C108.462 27.4909 107.634 27.3106 106.782 27.3106C105.651 27.3106 104.604 27.6005 103.639 28.1827C102.673 28.765 101.908 29.5542 101.343 30.5603C100.778 31.5615 100.495 32.6529 100.495 33.8393C100.495 35.0256 100.778 36.1121 101.343 37.1182C101.908 38.1194 102.673 38.9184 103.639 39.5104C104.604 40.1023 105.651 40.3971 106.782 40.3971C107.619 40.3971 108.437 40.2266 109.242 39.8807C110.042 39.5347 110.763 39.05 111.4 38.4215L112.49 39.6541C111.705 40.4385 110.81 41.0524 109.8 41.5006C108.787 41.9489 107.754 42.1706 106.702 42.1706C105.226 42.1706 103.876 41.8003 102.643 41.0573C101.416 40.3143 100.438 39.3033 99.7203 38.0366C99.0001 36.7674 98.6426 35.3813 98.6426 33.8709C98.6426 32.3606 99.0026 30.9793 99.7203 29.7199C100.438 28.4629 101.421 27.4617 102.658 26.7284C103.896 25.9952 105.264 25.6249 106.754 25.6249C107.832 25.6249 108.865 25.8368 109.857 26.2534C110.85 26.6699 111.728 27.2546 112.493 28.0025L111.403 29.3472C110.773 28.6967 110.062 28.1925 109.265 27.8417H109.267Z" fill="#333333"></path><path d="M134.942 27.8417C134.137 27.4909 133.309 27.3106 132.456 27.3106C131.326 27.3106 130.278 27.6005 129.316 28.1827C128.351 28.765 127.585 29.5542 127.02 30.5603C126.455 31.5615 126.173 32.6529 126.173 33.8393C126.173 35.0256 126.455 36.1121 127.02 37.1182C127.585 38.1194 128.351 38.9184 129.316 39.5104C130.281 40.1023 131.326 40.3971 132.456 40.3971C133.294 40.3971 134.112 40.2266 134.917 39.8807C135.715 39.5347 136.437 39.05 137.075 38.4215L138.165 39.6541C137.38 40.4385 136.485 41.0524 135.477 41.5006C134.464 41.9489 133.432 42.1706 132.379 42.1706C130.904 42.1706 129.553 41.8003 128.321 41.0573C127.093 40.3143 126.115 39.3033 125.397 38.0366C124.677 36.7674 124.322 35.3813 124.322 33.8709C124.322 32.3606 124.682 30.9793 125.397 29.7199C126.113 28.4629 127.098 27.4617 128.336 26.7284C129.573 25.9952 130.941 25.6249 132.431 25.6249C133.507 25.6249 134.542 25.8368 135.535 26.2534C136.53 26.6699 137.405 27.2546 138.17 28.0025L137.08 29.3472C136.452 28.6967 135.74 28.1925 134.942 27.8417Z" fill="#333333"></path><path d="M152.861 25.7637H154.717V41.9951H152.861V25.7637Z" fill="#333333"></path><path d="M182.662 41.9975L180.914 37.8465H172.502L170.782 41.9975H168.844L175.81 25.7661H177.726L184.662 41.9975H182.664H182.662ZM173.182 36.2168H180.231L176.71 27.8027L173.182 36.2168Z" fill="#333333"></path><path d="M207.848 41.9975L204.622 36.7893C204.222 36.8258 203.892 36.8453 203.637 36.8453H199.541V41.9975H197.686V25.7637H203.644C205.592 25.7637 207.107 26.2387 208.195 27.1815C209.275 28.1242 209.815 29.4665 209.815 31.2034C209.815 32.5383 209.51 33.6516 208.9 34.5383C208.29 35.4251 207.42 36.0584 206.295 36.4409L209.983 41.9951H207.85L207.848 41.9975ZM203.639 35.1863C205.042 35.1863 206.125 34.8453 206.887 34.1705C207.653 33.4957 208.033 32.5262 208.033 31.2667C208.033 30.0073 207.653 29.0743 206.887 28.4214C206.122 27.7612 205.042 27.4324 203.639 27.4324H199.543V35.1936H203.639V35.1888V35.1863Z" fill="#333333"></path><path d="M223.994 25.4957H234.671V27.1571H225.85V32.6529H233.741V34.3142H225.85V40.0365H234.974V41.7271H223.994V25.4957Z" fill="#333333"></path><path d="M247.529 23.8465C247.982 24.1291 248.342 24.5115 248.605 24.9963C248.867 25.4811 249 26.0073 249 26.5749C249 27.1425 248.867 27.6638 248.605 28.1486C248.342 28.6333 247.982 29.0255 247.525 29.313C247.067 29.6029 246.564 29.7466 246.014 29.7466C245.464 29.7466 244.971 29.6029 244.519 29.3179C244.066 29.0353 243.706 28.6479 243.449 28.1632C243.191 27.6784 243.059 27.1571 243.059 26.5895C243.059 26.0219 243.191 25.5006 243.454 25.0158C243.716 24.531 244.071 24.1388 244.524 23.8562C244.976 23.5663 245.479 23.4226 246.029 23.4226C246.579 23.4275 247.077 23.5663 247.529 23.8465ZM247.277 28.838C247.657 28.6017 247.955 28.2874 248.172 27.883C248.392 27.4859 248.497 27.0475 248.497 26.5773C248.497 26.1071 248.39 25.6686 248.177 25.274C247.962 24.8769 247.665 24.5627 247.287 24.3313C246.912 24.0998 246.492 23.9853 246.034 23.9853C245.577 23.9853 245.157 24.1047 244.776 24.3361C244.396 24.5676 244.099 24.8867 243.881 25.2911C243.661 25.693 243.556 26.1266 243.556 26.5968C243.556 27.0669 243.664 27.5054 243.881 27.9025C244.101 28.2996 244.394 28.6138 244.769 28.8453C245.144 29.0767 245.559 29.1961 246.014 29.1961C246.469 29.1961 246.897 29.0718 247.277 28.8404V28.838ZM247.139 26.6309C247.032 26.8014 246.877 26.9305 246.672 27.0134L247.359 28.0657H246.779L246.224 27.1181H245.397V28.0657H244.899V24.9257H246.092C246.477 24.9257 246.774 25.0182 246.984 25.2034C247.194 25.3885 247.294 25.6565 247.294 25.9975C247.299 26.2509 247.247 26.4555 247.139 26.6309ZM246.634 26.4969C246.762 26.3824 246.829 26.2192 246.829 26.0073C246.829 25.7953 246.764 25.6419 246.634 25.5322C246.507 25.425 246.327 25.3666 246.099 25.3666H245.404V26.6723H246.099C246.329 26.6723 246.504 26.6163 246.634 26.4969Z" fill="#333333"></path><path d="M153.656 61.1571V51.6736H154.689V55.3204C155.094 54.6261 155.917 54.095 157.189 54.095C158.18 54.095 159.032 54.4483 159.717 55.1425C160.4 55.8368 160.75 56.6943 160.75 57.7272C160.75 58.7601 160.4 59.6322 159.717 60.3264C159.032 61.0207 158.182 61.3593 157.189 61.3593C155.919 61.3593 155.094 60.8283 154.689 60.1364V61.1571H153.656ZM158.99 59.6614C159.48 59.145 159.717 58.5043 159.717 57.7296C159.717 56.9549 159.48 56.3143 158.99 55.81C158.515 55.2936 157.915 55.0353 157.189 55.0353C156.464 55.0353 155.807 55.2936 155.304 55.81C154.816 56.3143 154.564 56.9525 154.564 57.7296C154.564 58.5067 154.816 59.145 155.304 59.6614C155.807 60.1657 156.434 60.4239 157.189 60.4239C157.945 60.4239 158.515 60.1657 158.99 59.6614Z" fill="#9E9F9F"></path><path d="M161.714 62.9525C161.909 63.0208 162.147 63.0622 162.412 63.0622C162.65 63.0622 162.86 63.0061 163.012 62.9111C163.222 62.7625 163.402 62.4897 163.57 62.0804L163.877 61.3058L161.029 54.2997H162.062L164.38 60.0829L166.613 54.2997H167.646L164.462 62.3265C164.267 62.8307 164.045 63.2108 163.78 63.4836C163.432 63.8222 162.985 64 162.412 64C162.147 64 161.909 63.9586 161.714 63.8782V62.9525Z" fill="#9E9F9F"></path><path d="M172.758 63.5786V54.095H173.791V55.1157C174.196 54.4214 175.018 53.8904 176.291 53.8904C177.284 53.8904 178.134 54.2436 178.819 54.9379C179.504 55.6322 179.852 56.4897 179.852 57.5225C179.852 58.5554 179.502 59.4275 178.819 60.1218C178.134 60.8161 177.284 61.1547 176.291 61.1547C175.021 61.1547 174.196 60.6236 173.791 59.9294V63.5761H172.758V63.5786ZM178.094 59.4568C178.581 58.9403 178.819 58.2996 178.819 57.525C178.819 56.7503 178.581 56.1096 178.094 55.6054C177.619 55.0889 177.019 54.8307 176.291 54.8307C175.563 54.8307 174.908 55.0889 174.406 55.6054C173.918 56.1096 173.665 56.7479 173.665 57.525C173.665 58.3021 173.918 58.9403 174.406 59.4568C174.908 59.961 175.536 60.2192 176.291 60.2192C177.046 60.2192 177.619 59.961 178.094 59.4568Z" fill="#A1813A"></path><path d="M180.705 57.525C180.705 56.4921 181.068 55.6346 181.795 54.9403C182.52 54.2461 183.401 53.8928 184.448 53.8928C185.496 53.8928 186.376 54.2461 187.101 54.9403C187.827 55.6346 188.192 56.4921 188.192 57.525C188.192 58.5579 187.829 59.43 187.101 60.1242C186.376 60.8185 185.496 61.1571 184.448 61.1571C183.401 61.1571 182.52 60.8161 181.795 60.1242C181.07 59.43 180.705 58.5603 180.705 57.525ZM181.738 57.525C181.738 58.2996 181.99 58.9403 182.505 59.4568C183.023 59.961 183.666 60.2193 184.446 60.2193C185.226 60.2193 185.871 59.961 186.386 59.4568C186.904 58.9403 187.154 58.2996 187.154 57.525C187.154 56.7503 186.901 56.1096 186.386 55.6054C185.869 55.0889 185.226 54.8307 184.446 54.8307C183.666 54.8307 183.021 55.0889 182.505 55.6054C181.988 56.1096 181.738 56.7479 181.738 57.525Z" fill="#A1813A"></path><path d="M189.096 51.469H190.128V59.1572C190.128 59.9197 190.351 60.2193 191.009 60.2193C191.246 60.2193 191.414 60.2047 191.511 60.1925V61.05C191.386 61.1182 191.161 61.1596 190.869 61.1596C190.436 61.1596 190.128 61.0914 189.723 60.86C189.333 60.6286 189.096 60.0561 189.096 59.2278V51.4714V51.469Z" fill="#A1813A"></path><path d="M197.56 55.1157V54.095H198.593V59.4154C198.593 60.0146 198.733 60.2729 199.123 60.2729C199.235 60.2729 199.36 60.2582 199.485 60.2461V61.0085C199.318 61.0767 199.095 61.1182 198.828 61.1182C198.52 61.1182 198.27 61.05 198.087 60.9281C197.822 60.7235 197.655 60.3971 197.612 59.9489C197.082 60.7528 196.23 61.1596 195.057 61.1596C194.064 61.1596 193.214 60.8185 192.529 60.1267C191.844 59.4324 191.496 58.5627 191.496 57.5274C191.496 56.4921 191.846 55.637 192.529 54.9428C193.214 54.2485 194.064 53.8953 195.057 53.8953C196.327 53.8953 197.152 54.4263 197.557 55.1206L197.56 55.1157ZM196.932 59.4568C197.435 58.9403 197.687 58.2996 197.687 57.525C197.687 56.7503 197.435 56.1096 196.932 55.6054C196.442 55.0889 195.814 54.8307 195.062 54.8307C194.309 54.8307 193.734 55.0889 193.246 55.6054C192.771 56.1096 192.534 56.7479 192.534 57.525C192.534 58.3021 192.771 58.9403 193.246 59.4568C193.734 59.961 194.337 60.2193 195.062 60.2193C195.787 60.2193 196.445 59.961 196.932 59.4568Z" fill="#A1813A"></path><path d="M200.592 60.9526V54.0951H201.625V55.2522C202.002 54.4897 202.77 53.9879 203.79 53.9879C203.942 53.9879 204.097 54.0025 204.223 54.0147V55.1036C204.04 55.0622 203.802 55.0354 203.525 55.0354C202.422 55.0354 201.625 55.8247 201.625 56.9672V60.9526H200.592Z" fill="#A1813A"></path><path d="M205.059 59.1425C205.242 59.7272 205.869 60.1754 206.832 60.1754C207.992 60.1754 208.382 59.659 208.382 59.1279C208.382 58.7868 208.257 58.5286 207.992 58.3532C207.74 58.1754 207.28 57.9586 206.625 57.7004C205.339 57.2107 204.712 56.6943 204.712 55.7004C204.712 54.6529 205.592 53.8904 206.835 53.8904C207.785 53.8904 208.468 54.285 208.873 55.0743L208.035 55.4957C207.782 55.0475 207.392 54.8161 206.847 54.8161C206.19 54.8161 205.744 55.1425 205.744 55.7004C205.744 56.2582 206.22 56.5432 207.28 56.9379C208.733 57.4811 209.418 58.0804 209.418 59.1279C209.418 60.1754 208.51 61.1133 206.835 61.1133C205.494 61.1133 204.462 60.514 204.182 59.4665L205.062 59.1401L205.059 59.1425Z" fill="#9E9F9F"></path><path d="M210.393 54.0951V51.469H211.426V54.0951H213.059V55.0329H211.426V59.0329C211.426 59.9026 211.718 60.2169 212.404 60.2169C212.669 60.2169 212.879 60.2022 213.059 60.1755V61.0451C212.906 61.1133 212.639 61.1547 212.276 61.1547C211.018 61.1547 210.391 60.4483 210.391 59.0329V54.0951H210.393Z" fill="#9E9F9F"></path><path d="M213.521 57.525C213.521 56.4921 213.884 55.6346 214.612 54.9403C215.337 54.2461 216.217 53.8928 217.265 53.8928C218.312 53.8928 219.193 54.2461 219.918 54.9403C220.643 55.6346 221.008 56.4921 221.008 57.525C221.008 58.5579 220.645 59.43 219.918 60.1242C219.193 60.8185 218.312 61.1571 217.265 61.1571C216.217 61.1571 215.337 60.8161 214.612 60.1242C213.887 59.43 213.521 58.5603 213.521 57.525ZM214.554 57.525C214.554 58.2996 214.807 58.9403 215.322 59.4568C215.839 59.961 216.482 60.2193 217.262 60.2193C218.042 60.2193 218.688 59.961 219.203 59.4568C219.72 58.9403 219.97 58.2996 219.97 57.525C219.97 56.7503 219.718 56.1096 219.203 55.6054C218.685 55.0889 218.042 54.8307 217.262 54.8307C216.482 54.8307 215.837 55.0889 215.322 55.6054C214.804 56.1096 214.554 56.7479 214.554 57.525Z" fill="#9E9F9F"></path><path d="M221.733 60.9526V54.0951H222.766V55.2522C223.143 54.4897 223.938 53.9879 224.986 53.9879C226.564 53.9879 227.557 55.0086 227.557 56.5726V59.4033C227.557 59.9611 227.642 60.1243 228.044 60.1243C228.114 60.1243 228.197 60.1097 228.309 60.0975V60.9282C228.197 60.9696 228.044 60.9964 227.862 60.9964C227.317 60.9964 226.521 60.8478 226.521 59.4715V56.7918C226.521 55.6493 225.836 54.9282 224.719 54.9282C223.601 54.9282 222.763 55.7175 222.763 56.86V60.955H221.73L221.733 60.9526Z" fill="#9E9F9F"></path><path d="M228.814 57.5518C228.814 56.4507 229.15 55.5664 229.807 54.8989C230.465 54.2314 231.315 53.8928 232.335 53.8928C233.298 53.8928 234.068 54.2193 234.668 54.8867C235.268 55.5396 235.576 56.3435 235.576 57.3082C235.576 57.4568 235.576 57.6078 235.561 57.7442H229.85C229.905 59.2546 230.897 60.2217 232.363 60.2217C233.325 60.2217 233.898 59.9221 234.528 59.2692L235.213 59.9221C234.473 60.726 233.523 61.1328 232.365 61.1328C231.317 61.1328 230.452 60.8063 229.795 60.1657C229.137 59.525 228.817 58.6699 228.817 57.6078V57.5542L228.814 57.5518ZM234.471 56.8575C234.471 56.2996 234.261 55.8246 233.843 55.43C233.423 55.0353 232.92 54.8307 232.335 54.8307C231.693 54.8307 231.135 55.0353 230.672 55.43C230.212 55.8246 229.96 56.2996 229.917 56.8575H234.471Z" fill="#9E9F9F"></path></g><defs><clipPath id="clip0_952_4238"><rect width="249" height="64" fill="white"></rect></clipPath></defs></svg>